<?xml version="1.0" encoding="UTF-8" standalone="no"?>
<!-- Created with Inkscape (http://www.inkscape.org/) -->
<svg width="570.40027" height="519.25128" viewBox="0 0 150.9184 137.38523" version="1.1" id="svg1" inkscape:version="1.4 (e7c3feb100, 2024-10-09)" sodipodi:docname="wizard.svg" xmlns:inkscape="http://www.inkscape.org/namespaces/inkscape" xmlns:sodipodi="http://sodipodi.sourceforge.net/DTD/sodipodi-0.dtd" xmlns="http://www.w3.org/2000/svg" xmlns:svg="http://www.w3.org/2000/svg">
  <sodipodi:namedview id="namedview1" pagecolor="#ffffff" bordercolor="#000000" borderopacity="0.25" inkscape:showpageshadow="2" inkscape:pageopacity="0.0" inkscape:pagecheckerboard="0" inkscape:deskcolor="#d1d1d1" inkscape:document-units="mm" showguides="true" inkscape:zoom="0.54740759" inkscape:cx="126.96207" inkscape:cy="100.47358" inkscape:window-width="1916" inkscape:window-height="1017" inkscape:window-x="0" inkscape:window-y="0" inkscape:window-maximized="0" inkscape:current-layer="svg1"/>
  <defs id="defs1"/>
  <g transform="matrix(0.22089752,0,0,0.22089752,-31.221374,-59.016617)" id="g38" style="clip-rule:evenodd;fill-rule:evenodd;stroke-linecap:round;stroke-miterlimit:1.5">
        <g transform="rotate(-18.667573,183.38594,519.19247)" id="g3">
            <path d="m 217.863,501.65 7.991,23.406 h 25.859 l -20.92,14.467 7.99,23.406 -20.92,-14.466 -20.92,14.466 7.991,-23.406 -20.92,-14.467 h 25.859 z" style="fill:#fff3bf;stroke:#000000;stroke-width:10.96px;stroke-linejoin:round" id="path2"/>

        </g>

        <g transform="matrix(0.851047,0.058166,-0.0550257,0.805101,132.248,57.6675)" id="g4">
            <path d="m 328.85,380.771 c 0,0 68.118,-149.432 231.447,-152.043 98.61,-1.576 159.144,-4.712 200.436,-14.683 15.772,-3.809 -70.638,101.418 -106.157,109.284 -35.519,7.867 -87.86,31.091 -75.233,61.884" style="fill:#2c3d96;stroke:#000000;stroke-width:17.1px;stroke-linejoin:round" id="path3"/>

        </g>

        <g transform="matrix(0.873359,0.0430138,-0.0479091,0.972753,114.359,82.1083)" id="g5">
            <path d="M 540,494.187 C 523.785,456.215 387.383,443.365 354.641,511.206 323,576.768 254.052,676.282 324.259,748.808 c 64.874,67.018 383.641,68.035 471.999,-137.306 14.877,-34.572 33.496,-98.088 21.264,-94.101 -4.953,1.614 -30.099,32.449 -43.909,39.38 -21.142,10.61 31.249,-58.187 19.772,-54.507 -12.862,4.123 -49.961,40.989 -54.666,37.726 -4.705,-3.263 27.82,-47.322 23.822,-51.413 -3.998,-4.091 -19.352,13.673 -52.608,19.656 -40.6,7.305 -93.032,6.771 -113.726,9.659 -54.748,7.64 -47.322,-2.909 -56.207,-23.715 z" style="fill:#fff3bf;stroke:#000000;stroke-width:15.34px;stroke-linejoin:round" id="path4"/>

        </g>

        <g transform="matrix(-0.94905,-0.315127,-0.315127,0.94905,1077.57,258.21)" id="g6">
            <path d="m 644.651,639.769 c 1.28,-45.141 -65.408,-42.255 -89.334,-30.271 -28.107,14.078 -52.087,50.646 -24.559,68.144 38.211,24.289 113.067,-8.697 113.893,-37.873 z" style="fill:#2c3d96;stroke:#000000;stroke-width:14.2px;stroke-linejoin:round" id="path5"/>

        </g>

        <g transform="matrix(0.979244,0,0,1,62.7,84.7899)" id="g7">
            <path d="m 422.802,600.467 c 0,0 23.875,163.353 84.626,187.764 78.67,31.611 263.396,-33.132 263.396,-33.132 0,0 -97.294,-25.941 -114.385,-51.631 -17.091,-25.69 -82.243,-158.884 -95.575,-154.805 -13.331,4.079 -138.062,51.804 -138.062,51.804 z" style="fill:#2c3d96;stroke:#000000;stroke-width:14.34px;stroke-linejoin:round" id="path6"/>

        </g>

        <g transform="matrix(1.10438,0,0,1.07437,5.34003,42.3473)" id="g8">
            <path d="m 314.719,570.732 c 0,0 -42.864,94.124 -19.851,146.195 23.013,52.07 -18.322,32.483 -29.563,42.358 -17.776,15.616 108.6,8.013 108.6,8.013 0,0 -36.013,-137.124 11.257,-161.503 47.27,-24.379 -70.443,-35.063 -70.443,-35.063 z" style="fill:#2c3d96;stroke:#000000;stroke-width:13.03px;stroke-linejoin:round" id="path7"/>

        </g>

        <g transform="translate(46.7005,84.7899)" id="g9">
            <path d="m 338.075,515.014 c -26.698,-20.742 -35.987,-71.104 -30.984,-104.978 4.477,-30.307 27.879,-63.075 45.223,-76.446 25.976,-20.025 70.79,-23.023 106.287,-22.678 72.616,0.705 98.754,72.444 99.128,94.778 0.774,46.218 6.407,93.961 -90.355,124.545 -64.79,20.478 -102.6,5.521 -129.299,-15.221 z" style="fill:#fff3bf;stroke:#000000;stroke-width:14.2px;stroke-linejoin:round" id="path8"/>

        </g>

        <g transform="matrix(0.642788,-0.00348136,0.0040623,0.750051,266.855,127.766)" id="g10">
            <ellipse cx="321.09201" cy="488.00101" rx="20.843" ry="17.664" style="stroke:#000000;stroke-width:20.32px;stroke-linejoin:round" id="ellipse8"/>

        </g>

        <g transform="matrix(0.593622,-0.00321507,0.00375719,0.693717,199.824,145.911)" id="g11">
            <ellipse cx="321.09201" cy="488.00101" rx="20.843" ry="17.664" style="stroke:#000000;stroke-width:21.99px;stroke-linejoin:round" id="ellipse9"/>

        </g>

        <g transform="matrix(0.765081,-0.0041437,0.00438425,0.809495,148.753,90.3008)" id="g12">
            <path d="m 225.339,603.225 c 0,0 19.105,15.62 79.781,25.471 32.538,5.283 73.031,2.144 99.856,-17.8 23.219,-17.264 33.312,-41.652 33.312,-41.652" style="fill:#ffbc33;stroke:#000000;stroke-width:18.02px;stroke-linejoin:round" id="path10"/>

        </g>

        <g transform="matrix(0.771288,-0.00417732,0.00438425,0.809495,146.032,90.3156)" id="g13">
            <path d="m 438.284,569.244 c 0.478,-1.265 -29.122,-7.829 -54.456,-20.322 -12.353,-6.092 -24.134,-23.053 -30.065,-23.259 -10.797,-0.374 -22.726,10.216 -37.818,17.042 -17.869,8.082 -35.639,12.171 -62.582,14.438 -54.171,4.559 -49.603,61.15 -21.237,42.964 8.761,-5.617 38.757,-16.752 83.416,0 55.659,20.878 120.998,-26.256 122.742,-30.863 z" style="fill:#ffbc33;stroke:#000000;stroke-width:17.95px;stroke-linejoin:round" id="path11"/>

        </g>

        <g transform="matrix(0.823349,-0.00445928,0.00438425,0.809495,123.214,90.4392)" id="g14">
            <path d="m 331.814,414.594 c -41.52,8.316 -158.492,-28.24 -34.75,-51.79 19.913,-3.789 228.066,-18.225 315.168,38.807 87.103,57.033 -23.586,64.825 -40.958,51.343 -43.169,-33.501 -189.756,-48.316 -239.46,-38.36 z" style="fill:#2c3d96;stroke:#000000;stroke-width:17.39px;stroke-linejoin:round" id="path12"/>

        </g>

        <g transform="translate(46.7005,84.7899)" id="g15">
            <path d="m 401.712,592.612 c -35.4,11.784 -87.798,12.58 -94.707,-30.067 -7.422,-45.819 39.543,-38.846 39.543,-38.846 0,0 -21.881,39.723 33.846,60.021 55.726,20.297 133.415,-59.206 150.364,-80.097 20.935,-25.804 79.613,-8.379 42.467,36.377 -9.624,11.595 -73.866,51.904 -104.33,57.755 -34.852,6.693 -52.069,-10.173 -67.183,-5.143 z" style="fill:#2c3d96;stroke:#000000;stroke-width:14.2px;stroke-linejoin:round" id="path13"/>

        </g>

        <g transform="translate(37.2513,72.4978)" id="g16">
            <ellipse cx="413.26501" cy="612.802" rx="18.653999" ry="18.500999" style="fill:#ffbc33;stroke:#000000;stroke-width:14.2px;stroke-linejoin:round" id="ellipse14"/>

        </g>

        <g transform="matrix(0.221404,-0.00119913,0.00141867,0.261939,312.723,349.583)" id="g17">
            <ellipse cx="321.09201" cy="488.00101" rx="20.843" ry="17.664" style="fill:#fff3bf" id="ellipse15"/>

        </g>

        <g transform="matrix(0.221404,-0.00119913,0.00141867,0.261939,395.628,358.079)" id="g18">
            <ellipse cx="321.09201" cy="488.00101" rx="20.843" ry="17.664" style="fill:#fff3bf" id="ellipse16"/>

        </g>

        <g transform="rotate(-16.159552,852.83257,497.50969)" id="g19">
            <path d="m 644.651,639.769 c 1.28,-45.141 -65.408,-42.255 -89.334,-30.271 -28.107,14.078 -52.087,50.646 -24.559,68.144 38.211,24.289 113.067,-8.697 113.893,-37.873 z" style="fill:#2c3d96;stroke:#000000;stroke-width:14.2px;stroke-linejoin:round" id="path17"/>

        </g>

        <g transform="matrix(0.398687,-0.78303,-0.873077,-0.444535,960.359,1452.84)" id="g20">
            <path d="m 605.955,652.167 c -18.237,10.363 -71.531,20.171 -63.488,-12.469 4.526,-18.366 32.758,-60.495 42.256,-50.452 2.554,2.701 -2.623,24.223 2.791,23.535 2.756,-0.35 5.588,-33.084 20.738,-37.809 25.981,-8.104 6.563,12.496 7.429,26.451 0.13,2.095 11.418,-22.635 27.954,-28.353 35.896,-12.412 -9.917,63.322 -37.68,79.097 z" style="fill:#fff3bf;stroke:#000000;stroke-width:15.25px;stroke-linejoin:round" id="path18"/>

        </g>

        <g transform="matrix(1.0398,0.108798,0.108798,1.29738,-85.5949,-233.962)" id="g21">
            <path d="M 279.859,684.346 240.367,576.399" style="fill:none;stroke:#000000;stroke-width:11.06px;stroke-linejoin:round" id="path19"/>

        </g>

        <g transform="matrix(-0.402192,-0.871444,0.791719,-0.365397,37.922,1418.61)" id="g22">
            <path d="m 605.955,652.167 c -31.65,17.985 -47.241,2.81 -57.696,-5.956 -1.195,-1.002 -11.589,-9.717 -9.886,-16.798 4.612,-19.178 39.11,-49.515 46.35,-40.167 1.09,1.408 -0.73,27.83 2.791,23.535 2.186,-2.668 7.375,-32.899 20.738,-37.809 1.02,-0.375 12.494,-4.591 13.539,1.128 0.375,2.05 -0.441,1.827 -6.11,25.323 6.308,-6.399 10.32,-14.818 16.628,-21.216 14.57,-14.777 29.134,-11.378 22.498,8.276 -6.555,19.415 -32.779,54.551 -48.852,63.684 z" style="fill:#fff3bf;stroke:#000000;stroke-width:15.48px;stroke-linejoin:round" id="path20"/>

        </g>

        <g transform="rotate(-13.791126,161.22755,455.38494)" id="g23">
            <path d="m 161.228,435.951 4.76,14.186 12.863,5.249 -12.863,5.25 -4.76,14.186 -4.76,-14.186 -12.863,-5.25 12.863,-5.249 z" style="fill:#fff3bf;stroke:#000000;stroke-width:5.55px;stroke-linejoin:round" id="path21"/>

        </g>

        <g transform="matrix(1.13481,-0.131252,0.13333,1.15277,-57.821,-120.005)" id="g24">
            <path d="m 161.228,435.951 4.76,14.186 12.863,5.249 -12.863,5.25 -4.76,14.186 -4.76,-14.186 -12.863,-5.25 12.863,-5.249 z" style="fill:#fff3bf;stroke:#000000;stroke-width:4.82px;stroke-linejoin:round" id="path22"/>

        </g>

        <g transform="matrix(0.939739,0.011624,-0.0068121,0.804565,72.2307,64.0517)" id="g25">
            <path d="m 161.228,435.951 4.76,14.186 12.863,5.249 -12.863,5.25 -4.76,14.186 -4.76,-14.186 -12.863,-5.25 12.863,-5.249 z" style="fill:#fff3bf;stroke:#000000;stroke-width:6.33px;stroke-linejoin:round" id="path23"/>

        </g>

        <g transform="matrix(1.4777,0.210883,-0.202793,1.54764,110.811,-377.393)" id="g26">
            <path d="m 161.228,435.951 4.76,14.186 12.863,5.249 -12.863,5.25 -4.76,14.186 -4.76,-14.186 -12.863,-5.25 12.863,-5.249 z" style="fill:#fff3bf;stroke:#000000;stroke-width:3.61px;stroke-linejoin:round" id="path24"/>

        </g>

        <g transform="matrix(0.97032,0.454516,-0.424659,0.934312,507.7,-155.014)" id="g27">
            <path d="m 161.228,435.951 4.76,14.186 12.863,5.249 -12.863,5.25 -4.76,14.186 -4.76,-14.186 -12.863,-5.25 12.863,-5.249 z" style="fill:#ffbc33" id="path25"/>

        </g>

        <g transform="matrix(0.907657,-0.412477,0.403081,0.860651,195.111,388.387)" id="g28">
            <path d="m 161.228,435.951 4.76,14.186 12.863,5.249 -12.863,5.25 -4.76,14.186 -4.76,-14.186 -12.863,-5.25 12.863,-5.249 z" style="fill:#ffbc33" id="path26"/>

        </g>

        <g transform="matrix(0.875571,0.476815,-0.444923,0.839784,717.368,323.251)" id="g29">
            <path d="m 161.228,435.951 4.76,14.186 12.863,5.249 -12.863,5.25 -4.76,14.186 -4.76,-14.186 -12.863,-5.25 12.863,-5.249 z" style="fill:#ffbc33" id="path27"/>

        </g>

        <g transform="matrix(-0.799692,0.827027,-0.919003,-0.868469,1116.59,1078.07)" id="g30">
            <path d="m 161.228,435.951 4.76,14.186 12.863,5.249 -12.863,5.25 -4.76,14.186 -4.76,-14.186 -12.863,-5.25 12.863,-5.249 z" style="fill:#ffbc33" id="path28"/>

        </g>

        <g transform="matrix(0.860698,0.238614,-0.196604,0.742101,314.023,358.366)" id="g31">
            <path d="m 161.228,435.951 4.76,14.186 12.863,5.249 -12.863,5.25 -4.76,14.186 -4.76,-14.186 -12.863,-5.25 12.863,-5.249 z" style="fill:#ffbc33" id="path29"/>

        </g>

        <g transform="matrix(0.595412,0.197899,-0.208225,0.651328,362.94,481.27)" id="g32">
            <path d="m 161.228,435.951 4.76,14.186 12.863,5.249 -12.863,5.25 -4.76,14.186 -4.76,-14.186 -12.863,-5.25 12.863,-5.249 z" style="fill:#ffbc33" id="path30"/>

        </g>

        <g transform="matrix(0.257478,-0.888566,0.85152,0.231872,389.881,935.278)" id="g33">
            
        </g>

        <g transform="matrix(0.780838,-0.126012,0.135336,0.781551,466.072,-25.2011)" id="g34">
            <path d="m 161.228,435.951 4.76,14.186 12.863,5.249 -12.863,5.25 -4.76,14.186 -4.76,-14.186 -12.863,-5.25 12.863,-5.249 z" style="fill:#ffbc33" id="path32"/>

        </g>

        <g transform="matrix(0.610558,-0.0985322,0.105583,0.609729,397.41,47.1376)" id="g35">
            <path d="m 161.228,435.951 4.76,14.186 12.863,5.249 -12.863,5.25 -4.76,14.186 -4.76,-14.186 -12.863,-5.25 12.863,-5.249 z" style="fill:#ffbc33" id="path33"/>

        </g>

        <g transform="matrix(0.913934,0.0413522,-0.0645131,0.841623,462.333,-28.0325)" id="g36">
            <path d="m 161.228,435.951 4.76,14.186 12.863,5.249 -12.863,5.25 -4.76,14.186 -4.76,-14.186 -12.863,-5.25 12.863,-5.249 z" style="fill:#ffbc33" id="path34"/>

        </g>

        <g transform="matrix(1.19975,0.172264,-0.142126,0.989849,13.2415,-5.54437)" id="g37">
            <path d="m 262.448,412.265 3.668,15.738 9.913,5.823 -9.913,5.823 -3.668,15.737 -3.668,-15.737 -9.913,-5.823 9.913,-5.823 z" style="fill:#fff3bf;stroke:#000000;stroke-width:4.99px;stroke-linejoin:round" id="path35"/>

        </g>

    </g>
</svg>